<?xml version="1.0" encoding="UTF-8"?>
<svg xmlns="http://www.w3.org/2000/svg" id="Ebene_1" data-name="Ebene 1" viewBox="0 0 566.93 64.18">
  <defs>
    <style>.cls-1{fill:none;}.cls-2{fill:#fff;}</style>
  </defs>
  <title>OWKS_Wortmarke_100mm_weiss_rgb</title>
  <path class="cls-1" d="M472.82,42.49a3.94,3.94,0,0,0-.55,0l-2.13,2.13c0,0.07,0,.14,0,0.21a1.45,1.45,0,0,0,.2.72l3.08-3.08C473.2,42.51,473,42.49,472.82,42.49Z"></path>
  <polygon class="cls-1" points="540.9 49.73 540.74 49.73 535.92 54.55 537.04 54.55 544.84 46.75 544.84 45.63 540.9 49.57 540.9 49.73"></polygon>
  <path class="cls-1" d="M477.29,50.45l7.14-7.14,0.71-1.83-8.24,8.24A4,4,0,0,1,477.29,50.45Z"></path>
  <path class="cls-1" d="M474.05,52.63s0,0,0,0l-2.16,2.16A2.35,2.35,0,0,0,474.05,52.63Z"></path>
  <polygon class="cls-1" points="527.51 52.25 531.33 48.44 531.33 47.32 527.51 51.13 527.51 52.25"></polygon>
  <path class="cls-1" d="M474.5,42.67l-3.58,3.58a4.77,4.77,0,0,0,.71.41l3.76-3.76A8.75,8.75,0,0,0,474.5,42.67Z"></path>
  <polygon class="cls-1" points="540.9 48.32 544.84 44.38 544.84 43.27 540.9 47.2 540.9 48.32"></polygon>
  <polygon class="cls-1" points="493.7 50.59 498.24 46.06 498.24 44.94 493.39 49.79 493.7 50.59"></polygon>
  <polygon class="cls-1" points="493.04 48.9 498.24 43.7 498.24 42.58 492.72 48.09 493.04 48.9"></polygon>
  <polygon class="cls-1" points="492.37 47.2 498.24 41.33 498.24 40.21 492.05 46.4 492.37 47.2"></polygon>
  <path class="cls-1" d="M477.64,52.36s0,0.08,0,.12l5.29-5.29,0.71-1.83-6.07,6.07A5.64,5.64,0,0,1,477.64,52.36Z"></path>
  <polygon class="cls-1" points="539.41 54.55 544.84 49.11 544.84 48 538.29 54.55 539.41 54.55"></polygon>
  <polygon class="cls-1" points="487.65 43.71 487.37 43.98 486.77 45.7 487.94 44.54 487.65 43.71"></polygon>
  <polygon class="cls-1" points="488.26 45.46 486.1 47.62 485.49 49.34 488.55 46.29 488.26 45.46"></polygon>
  <polygon class="cls-1" points="488.88 47.21 485.47 50.61 486.59 50.61 489.17 48.04 488.88 47.21"></polygon>
  <polygon class="cls-1" points="541.52 54.55 541.52 54.8 544.84 51.48 544.84 50.36 540.65 54.55 541.52 54.55"></polygon>
  <polygon class="cls-1" points="541.52 57.17 544.84 53.84 544.84 52.72 541.52 56.05 541.52 57.17"></polygon>
  <polygon class="cls-1" points="485.13 53.32 483.41 55.04 482.72 56.85 486.25 53.32 485.13 53.32"></polygon>
  <path class="cls-1" d="M468.6,54.42l3.8-3.8c-0.24-.12-0.5-0.23-0.77-0.34l-3.84,3.84C468.05,54.22,468.32,54.33,468.6,54.42Z"></path>
  <polygon class="cls-1" points="536.01 49.73 534.77 50.97 534.77 52.09 537.13 49.73 536.01 49.73"></polygon>
  <path class="cls-1" d="M470.57,54.81l3.18-3.18a2.38,2.38,0,0,0-.56-0.56l-3.6,3.6A7.36,7.36,0,0,0,470.57,54.81Z"></path>
  <polygon class="cls-1" points="494.37 52.29 498.24 48.42 498.24 47.3 494.05 51.49 494.37 52.29"></polygon>
  <polygon class="cls-1" points="509.59 53.62 513.39 49.82 513.39 48.7 509.26 52.83 509.59 53.62"></polygon>
  <polygon class="cls-1" points="523.48 51.56 524.22 50.82 524.22 49.7 523.1 50.82 523.48 51.56"></polygon>
  <polygon class="cls-1" points="522.68 49.99 524.22 48.45 524.22 47.33 522.3 49.25 522.68 49.99"></polygon>
  <polygon class="cls-1" points="521.88 48.43 524.22 46.09 524.22 44.97 521.5 47.69 521.88 48.43"></polygon>
  <polygon class="cls-1" points="527.51 56.98 531.33 53.16 531.33 52.05 527.51 55.86 527.51 56.98"></polygon>
  <polygon class="cls-1" points="538.22 42.79 534.77 46.24 534.77 47.02 535.11 47.02 539.34 42.79 538.22 42.79"></polygon>
  <polygon class="cls-1" points="527.51 47.52 531.33 43.7 531.33 42.59 527.51 46.4 527.51 47.52"></polygon>
  <polygon class="cls-1" points="524.17 52.92 524.22 52.92 524.22 52.06 523.9 52.39 524.17 52.92"></polygon>
  <polygon class="cls-1" points="527.51 49.89 531.33 46.07 531.33 44.95 527.51 48.77 527.51 49.89"></polygon>
  <polygon class="cls-1" points="521.08 46.86 524.22 43.72 524.22 42.6 520.7 46.12 521.08 46.86"></polygon>
  <polygon class="cls-1" points="495.04 53.99 498.24 50.79 498.24 49.67 494.72 53.19 495.04 53.99"></polygon>
  <polygon class="cls-1" points="527.51 54.62 531.33 50.8 531.33 49.68 527.51 53.5 527.51 54.62"></polygon>
  <polygon class="cls-1" points="527.51 45.16 531.33 41.34 531.33 40.22 527.51 44.04 527.51 45.16"></polygon>
  <polygon class="cls-1" points="539.84 47.02 544.84 42.02 544.84 40.9 538.72 47.02 539.84 47.02"></polygon>
  <path class="cls-1" d="M506.5,48.72v0a1.46,1.46,0,0,1,.64.21l0.64-.64A4.42,4.42,0,0,1,506.5,48.72Z"></path>
  <path class="cls-1" d="M508.2,50.29l5.2-5.2V44l-5.62,5.62A4.64,4.64,0,0,1,508.2,50.29Z"></path>
  <path class="cls-1" d="M509.66,46.46l3.73-3.73V41.61L510,45A4.09,4.09,0,0,1,509.66,46.46Z"></path>
  <polygon class="cls-1" points="495.7 55.69 498.24 53.15 498.24 52.03 495.39 54.88 495.7 55.69"></polygon>
  <polygon class="cls-1" points="520.28 45.3 524.22 41.36 524.22 40.24 519.9 44.55 520.28 45.3"></polygon>
  <polygon class="cls-1" points="510.97 56.98 513.39 54.55 513.39 53.43 510.64 56.18 510.97 56.98"></polygon>
  <polygon class="cls-1" points="535.86 42.79 534.77 43.87 534.77 44.99 536.98 42.79 535.86 42.79"></polygon>
  <polygon class="cls-1" points="510.28 55.3 513.39 52.18 513.39 51.06 509.95 54.51 510.28 55.3"></polygon>
  <polygon class="cls-1" points="489.49 48.96 487.84 50.61 488.96 50.61 489.78 49.79 489.49 48.96"></polygon>
  <polygon class="cls-1" points="508.9 51.95 513.39 47.45 513.39 46.34 508.58 51.15 508.9 51.95"></polygon>
  <polygon class="cls-1" points="538.38 49.73 534.77 53.33 534.77 54.45 539.5 49.73 538.38 49.73"></polygon>
  <path class="cls-1" d="M504.9,43l-3.22,3.22v1.12l4-4A2.6,2.6,0,0,0,504.9,43Z"></path>
  <polygon class="cls-1" points="548.26 44.57 548.13 44.7 548.13 45.82 548.64 45.31 548.26 44.57"></polygon>
  <polygon class="cls-1" points="517.86 46.6 516.69 47.77 516.69 48.89 518.24 47.34 517.86 46.6"></polygon>
  <polygon class="cls-1" points="554.68 51.09 555.66 50.11 555.66 48.99 554.3 50.35 554.68 51.09"></polygon>
  <path class="cls-1" d="M502.81,42.79h-0.06l-1.07,1.07V45l2.15-2.15C503.5,42.8,503.15,42.79,502.81,42.79Z"></path>
  <polygon class="cls-1" points="553.09 47.96 555.66 45.38 555.66 44.26 552.71 47.22 553.09 47.96"></polygon>
  <polygon class="cls-1" points="555.48 52.66 555.66 52.48 555.66 51.36 555.1 51.92 555.48 52.66"></polygon>
  <path class="cls-1" d="M506.23,44l-3.37,3.37a10,10,0,0,0,1.18-.07l2.4-2.4A2.18,2.18,0,0,0,506.23,44Z"></path>
  <polygon class="cls-1" points="551.47 50.83 548.13 54.16 548.13 55.28 551.84 51.57 551.47 50.83"></polygon>
  <polygon class="cls-1" points="517.06 45.03 516.69 45.4 516.69 46.52 517.44 45.77 517.06 45.03"></polygon>
  <polygon class="cls-1" points="553.88 49.53 555.66 47.75 555.66 46.63 553.51 48.79 553.88 49.53"></polygon>
  <polygon class="cls-1" points="520.26 51.29 516.69 54.86 516.69 55.98 520.64 52.03 520.26 51.29"></polygon>
  <polygon class="cls-1" points="550.66 49.26 548.13 51.79 548.13 52.91 551.04 50 550.66 49.26"></polygon>
  <path class="cls-1" d="M502.79,50.12h-0.27l-0.84.83v1.12l1.88-1.88A3.9,3.9,0,0,0,502.79,50.12Z"></path>
  <polygon class="cls-1" points="549.07 46.13 548.13 47.06 548.13 48.18 549.44 46.87 549.07 46.13"></polygon>
  <polygon class="cls-1" points="552.29 46.4 555.66 43.02 555.66 41.9 551.91 45.65 552.29 46.4"></polygon>
  <polygon class="cls-1" points="549.87 47.7 548.13 49.43 548.13 50.55 550.24 48.44 549.87 47.7"></polygon>
  <polygon class="cls-1" points="518.66 48.16 516.69 50.13 516.69 51.25 519.04 48.91 518.66 48.16"></polygon>
  <polygon class="cls-1" points="505.26 52.11 501.68 55.69 501.68 56.8 505.57 52.91 505.26 52.11"></polygon>
  <polygon class="cls-1" points="519.46 49.73 516.69 52.5 516.69 53.62 519.84 50.47 519.46 49.73"></polygon>
  <path class="cls-1" d="M504.41,50.59l-2.73,2.73v1.12l3.2-3.2A2.28,2.28,0,0,0,504.41,50.59Z"></path>
  <polygon class="cls-2" points="561.76 64.18 566.93 59.01 566.93 57.76 560.51 64.18 561.76 64.18"></polygon>
  <path class="cls-2" d="M386.72,8.66c-3.42,0-4.82,3.1-4.82,6.13S383.2,21,386.72,21s4.82-3.12,4.82-6.22S390.14,8.66,386.72,8.66Z"></path>
  <path class="cls-2" d="M524.12,0H0V30.35H524.12V0ZM323.19,23.42l-6.17-8h0v8h-3.44V6.25H317v7.38l6.2-7.38h4.23l-7.06,8.09,7.36,9.08h-4.5Zm18.48,0-1.48-3.94h-7l-1.5,3.94h-3.57l6.69-17.17h3.89l6.74,17.17h-3.81Zm20,0h-4.21l-6.57-12.84h0V23.42h-3.3V6.25h4.23l6.54,12.84h0V6.25h3.3V23.42ZM377,9H372V23.42h-3.44V9h-4.92V6.25H377V9Zm9.77,14.76c-5.51,0-8.41-3.67-8.41-8.93s3-8.83,8.41-8.83,8.41,3.64,8.41,8.83S392.16,23.72,386.72,23.72Zm25.51-.29H408l-6.57-12.84h0V23.42h-3.3V6.25h4.23l6.54,12.84h0V6.25h3.3V23.42Zm7.92,0.29a15.11,15.11,0,0,1-4.4-.66l0.32-3.1A8.29,8.29,0,0,0,420,21c1.3,0,3-.66,3-2.21,0-3.27-7.53-1.92-7.53-7.6,0-3.84,3-5.24,6-5.24a13,13,0,0,1,4.11.61L425.28,9.4a8.89,8.89,0,0,0-3.49-.74c-1.18,0-2.71.52-2.71,2.39,0,3,7.53,1.72,7.53,7.48C426.61,22.29,423.63,23.72,420.16,23.72Zm13.68,0a15.11,15.11,0,0,1-4.4-.66l0.32-3.1A8.29,8.29,0,0,0,433.64,21c1.3,0,3.05-.66,3.05-2.21,0-3.27-7.53-1.92-7.53-7.6,0-3.84,3-5.24,6-5.24a13,13,0,0,1,4.11.61L439,9.4a8.89,8.89,0,0,0-3.49-.74c-1.18,0-2.71.52-2.71,2.39,0,3,7.53,1.72,7.53,7.48C440.29,22.29,437.31,23.72,433.84,23.72Zm18.16,0c-5.56,0-9.42-2.78-9.42-8.58S446.17,6,452,6a11.35,11.35,0,0,1,3.89.71l-0.25,2.9a7.09,7.09,0,0,0-3.72-.91c-3.54,0-5.76,2.71-5.76,6.22S448.33,21,452,21a9.59,9.59,0,0,0,3.76-.71l0.15,2.88A17.44,17.44,0,0,1,452,23.72Zm20.22-.29h-3.44V15.9h-6.89v7.53h-3.44V6.25h3.44v6.94h6.89V6.25h3.44V23.42Zm17.89-6.2c0,4.6-2.61,6.49-7,6.49s-7-1.89-7-6.49v-11h3.44v9.91c0,2.93.93,4.85,3.57,4.85s3.57-1.92,3.57-4.85V6.25h3.44v11Zm14,6.2H494V6.25h3.44V20.72h6.67v2.71Zm12.38,0H506.28V6.25h10.14V9h-6.69v4.23h6.13V15.9h-6.13v4.82h6.74v2.71Z"></path>
  <polygon class="cls-2" points="336.7 9.7 334.22 16.78 339.23 16.78 336.75 9.7 336.7 9.7"></polygon>
  <polygon class="cls-2" points="488.55 46.29 485.49 49.34 485.05 50.61 485.47 50.61 488.88 47.21 488.55 46.29"></polygon>
  <polygon class="cls-2" points="470.66 64.18 471.91 64.18 479.11 56.98 479.9 54.94 470.66 64.18"></polygon>
  <polygon class="cls-2" points="502.25 33.83 501.01 33.83 491.04 43.8 491.39 44.7 502.25 33.83"></polygon>
  <polygon class="cls-2" points="549.44 46.87 548.13 48.18 548.13 49.43 549.87 47.7 549.44 46.87"></polygon>
  <polygon class="cls-2" points="532.14 64.18 533.39 64.18 540.31 57.25 539.07 57.25 532.14 64.18"></polygon>
  <polygon class="cls-2" points="541.52 56.05 544.84 52.72 544.84 51.48 541.52 54.8 541.52 56.05"></polygon>
  <polygon class="cls-2" points="555.66 41.9 555.66 40.65 551.49 44.83 551.91 45.65 555.66 41.9"></polygon>
  <polygon class="cls-2" points="563.73 33.83 562.49 33.83 556.23 40.08 557.48 40.08 563.73 33.83"></polygon>
  <path class="cls-2" d="M508.32,50.54l0.25,0.62,4.82-4.82V45.09l-5.2,5.2Z"></path>
  <polygon class="cls-2" points="501.68 56.8 501.68 57.25 501.23 57.25 494.31 64.18 495.55 64.18 505.92 53.81 505.57 52.91 501.68 56.8"></polygon>
  <polygon class="cls-2" points="525.9 33.83 524.65 33.83 517.89 40.6 518.31 41.42 525.9 33.83"></polygon>
  <polygon class="cls-2" points="538.29 54.55 544.84 48 544.84 46.75 537.04 54.55 538.29 54.55"></polygon>
  <polygon class="cls-2" points="548.18 44.41 548.13 44.41 548.13 44.7 548.26 44.57 548.18 44.41"></polygon>
  <polygon class="cls-2" points="559 33.83 557.76 33.83 549.89 41.7 550.31 42.52 559 33.83"></polygon>
  <polygon class="cls-2" points="527.41 64.18 528.66 64.18 535.58 57.25 534.33 57.25 527.41 64.18"></polygon>
  <path class="cls-2" d="M469.58,54.68l3.6-3.6a4.93,4.93,0,0,0-.78-0.47l-3.8,3.8A8.34,8.34,0,0,0,469.58,54.68Z"></path>
  <path class="cls-2" d="M466.87,56.15l-7.93,7.93v0.1h1.15L467.26,57l-0.47-.12Z"></path>
  <path class="cls-2" d="M490.43,33.83h-1.25L474.94,48.08a7.14,7.14,0,0,1,.77.47Z"></path>
  <polygon class="cls-2" points="557.03 64.18 566.93 54.28 566.93 53.03 555.78 64.18 557.03 64.18"></polygon>
  <polygon class="cls-2" points="458.94 44.04 469.15 33.83 467.9 33.83 458.94 42.8 458.94 44.04"></polygon>
  <polygon class="cls-2" points="489.58 64.18 490.82 64.18 498.24 56.76 498.24 55.52 489.58 64.18"></polygon>
  <polygon class="cls-2" points="521.17 33.83 519.92 33.83 513.67 40.08 514.92 40.08 521.17 33.83"></polygon>
  <path class="cls-2" d="M510,45l3.37-3.37V40.36L510,43.78a6.36,6.36,0,0,1,.07,1C510,44.82,510,44.89,510,45Z"></path>
  <path class="cls-2" d="M503.56,50.19l-1.88,1.88v1.25l2.73-2.73A1.73,1.73,0,0,0,503.56,50.19Z"></path>
  <polygon class="cls-2" points="510.97 56.98 511.08 57.25 510.69 57.25 503.77 64.18 505.01 64.18 513.39 55.79 513.39 54.55 510.97 56.98"></polygon>
  <polygon class="cls-2" points="519.04 48.91 516.69 51.25 516.69 52.5 519.46 49.73 519.04 48.91"></polygon>
  <polygon class="cls-2" points="535.36 33.83 534.11 33.83 527.51 40.43 527.51 41.67 535.36 33.83"></polygon>
  <polygon class="cls-2" points="521.5 47.69 524.22 44.97 524.22 43.72 521.08 46.86 521.5 47.69"></polygon>
  <polygon class="cls-2" points="523.53 33.83 522.29 33.83 516.04 40.08 517.28 40.08 523.53 33.83"></polygon>
  <path class="cls-2" d="M507.78,48.34l-0.64.64a2.25,2.25,0,0,1,.63.62L513.39,44V42.73l-3.73,3.73A3.8,3.8,0,0,1,507.78,48.34Z"></path>
  <polygon class="cls-2" points="491.94 64.18 493.19 64.18 500.11 57.25 498.87 57.25 491.94 64.18"></polygon>
  <path class="cls-2" d="M505.17,51.89a6.3,6.3,0,0,0-.29-0.65l-3.2,3.2v1.25l3.58-3.58Z"></path>
  <polygon class="cls-2" points="529.78 64.18 531.02 64.18 537.95 57.25 536.7 57.25 529.78 64.18"></polygon>
  <polygon class="cls-2" points="561.37 33.83 560.12 33.83 550.69 43.26 551.11 44.09 561.37 33.83"></polygon>
  <polygon class="cls-2" points="548.64 45.31 548.13 45.82 548.13 47.06 549.07 46.13 548.64 45.31"></polygon>
  <polygon class="cls-2" points="540.65 54.55 544.84 50.36 544.84 49.11 539.41 54.55 540.65 54.55"></polygon>
  <polygon class="cls-2" points="458.94 41.68 466.78 33.83 465.54 33.83 458.94 40.43 458.94 41.68"></polygon>
  <polygon class="cls-2" points="536.98 42.79 534.77 44.99 534.77 46.24 538.22 42.79 536.98 42.79"></polygon>
  <polygon class="cls-2" points="547.18 33.83 545.93 33.83 539.68 40.08 540.93 40.08 547.18 33.83"></polygon>
  <polygon class="cls-2" points="527.51 53.5 531.33 49.68 531.33 48.44 527.51 52.25 527.51 53.5"></polygon>
  <polygon class="cls-2" points="523.04 56.73 515.59 64.18 516.83 64.18 523.76 57.25 523.31 57.25 523.04 56.73"></polygon>
  <polygon class="cls-2" points="566.93 47.19 566.93 45.94 558.96 53.91 558.96 55.16 566.93 47.19"></polygon>
  <polygon class="cls-2" points="548.69 64.18 549.94 64.18 556.86 57.25 555.62 57.25 548.69 64.18"></polygon>
  <polygon class="cls-2" points="518.24 47.34 516.69 48.89 516.69 50.13 518.66 48.16 518.24 47.34"></polygon>
  <polygon class="cls-2" points="501.4 64.18 502.65 64.18 509.57 57.25 508.32 57.25 501.4 64.18"></polygon>
  <polygon class="cls-2" points="510.64 56.18 513.39 53.43 513.39 52.18 510.28 55.3 510.64 56.18"></polygon>
  <polygon class="cls-2" points="520.7 46.12 524.22 42.6 524.22 41.36 520.28 45.3 520.7 46.12"></polygon>
  <polygon class="cls-2" points="532.99 33.83 531.75 33.83 525.5 40.08 526.74 40.08 532.99 33.83"></polygon>
  <polygon class="cls-2" points="458.94 36.95 462.06 33.83 460.81 33.83 458.94 35.7 458.94 36.95"></polygon>
  <polygon class="cls-2" points="495.16 33.83 493.91 33.83 487.66 40.08 488.91 40.08 495.16 33.83"></polygon>
  <path class="cls-2" d="M477.56,51.43l6.07-6.07,0.8-2-7.14,7.14A4.45,4.45,0,0,1,477.56,51.43Z"></path>
  <path class="cls-2" d="M470.23,57.52l-6.66,6.66h1.25l6.64-6.64H471.2C470.84,57.55,470.52,57.54,470.23,57.52Z"></path>
  <path class="cls-2" d="M471,54.84a4.32,4.32,0,0,0,.89-0.1L474,52.58a1.71,1.71,0,0,0-.3-0.95l-3.18,3.18C470.71,54.82,470.86,54.84,471,54.84Z"></path>
  <path class="cls-2" d="M476.9,49.73l8.24-8.24,0.55-1.4h0.85l6.25-6.25h-1.25L476.33,49.05A4.3,4.3,0,0,1,476.9,49.73Z"></path>
  <path class="cls-2" d="M461.2,64.18h1.25l6.76-6.76c-0.35-.05-0.69-0.12-1-0.2Z"></path>
  <polygon class="cls-2" points="499.04 64.18 500.28 64.18 507.23 57.23 506.88 56.33 499.04 64.18"></polygon>
  <polygon class="cls-2" points="509.95 54.51 513.39 51.06 513.39 49.82 509.59 53.62 509.95 54.51"></polygon>
  <polygon class="cls-2" points="524.22 40.24 524.22 40.08 524.38 40.08 530.63 33.83 529.38 33.83 519.48 43.73 519.9 44.55 524.22 40.24"></polygon>
  <polygon class="cls-2" points="517.44 45.77 516.69 46.52 516.69 47.77 517.86 46.6 517.44 45.77"></polygon>
  <polygon class="cls-2" points="378.22 43.53 378.17 43.53 375.69 50.61 380.71 50.61 378.22 43.53"></polygon>
  <path class="cls-2" d="M340.76,44.93c0-2-1.75-2.14-3.32-2.14h-1.33V47h1.4C339,47,340.76,46.7,340.76,44.93Z"></path>
  <path class="cls-2" d="M412.5,48.67a5.62,5.62,0,0,0-5.66-5.88h-1.92V54.55h1.92A5.62,5.62,0,0,0,412.5,48.67Z"></path>
  <path class="cls-2" d="M341.28,52.16c0-2.24-1.82-2.58-3.54-2.58h-1.62v5h1.62C339.33,54.55,341.28,54.15,341.28,52.16Z"></path>
  <path class="cls-2" d="M321.1,54.84c3.52,0,4.82-3.12,4.82-6.22s-1.4-6.13-4.82-6.13-4.82,3.1-4.82,6.13S317.58,54.84,321.1,54.84Z"></path>
  <path class="cls-2" d="M0,64.18H454.84V33.83H0V64.18ZM432.75,40.08H437l6.54,12.84h0V40.08h3.3V57.25h-4.21l-6.57-12.84h0V57.25h-3.3V40.08Zm-13.51,0h10.14v2.71h-6.69V47h6.13v2.71h-6.13v4.82h6.74v2.71H419.24V40.08Zm-17.76,0h4.7c5.26,0,9.91,1.77,9.91,8.59s-4.65,8.58-9.91,8.58h-4.7V40.08Zm-12.3,0h3.44V54.55h6.67v2.71H389.17V40.08Zm-9,0L387,57.25h-3.81l-1.48-3.94h-7l-1.5,3.94h-3.57l6.69-17.17h3.89Zm-30.64,0,3.2,13.73h0l2.93-13.73h4.67l3,13.73h0l3.22-13.73h3.35l-4.48,17.17h-4.43l-3.1-13.73h0L355,57.25h-4.45L346,40.08h3.62Zm-16.9,0h6c2.21,0,5.53.64,5.53,4.4a3.83,3.83,0,0,1-3.42,3.84v0a4,4,0,0,1,3.94,3.91c0,4.33-3.89,5-6.05,5h-6V40.08Zm-11.57-.3c5.39,0,8.41,3.64,8.41,8.83s-3,8.93-8.41,8.93-8.41-3.67-8.41-8.93S315.64,39.79,321.1,39.79Z"></path>
  <polygon class="cls-2" points="458.94 34.58 459.69 33.83 458.94 33.83 458.94 34.58"></polygon>
  <polygon class="cls-2" points="544.84 40.9 544.84 40.08 545.66 40.08 551.91 33.83 550.66 33.83 537.48 47.02 538.72 47.02 544.84 40.9"></polygon>
  <polygon class="cls-2" points="527.51 56.98 527.51 57.25 527.24 57.25 520.32 64.18 521.56 64.18 531.33 54.41 531.33 53.16 527.51 56.98"></polygon>
  <polygon class="cls-2" points="534.77 49.73 534.77 50.97 536.01 49.73 534.77 49.73"></polygon>
  <polygon class="cls-2" points="487.94 44.54 486.77 45.7 486.1 47.62 488.26 45.46 487.94 44.54"></polygon>
  <polygon class="cls-2" points="468.3 64.18 469.54 64.18 480.61 53.1 481.41 51.06 468.3 64.18"></polygon>
  <polygon class="cls-2" points="499.89 33.83 498.64 33.83 490.37 42.1 490.72 43 499.89 33.83"></polygon>
  <polygon class="cls-2" points="539.5 49.73 534.77 54.45 534.77 54.55 535.92 54.55 540.74 49.73 539.5 49.73"></polygon>
  <polygon class="cls-2" points="525.05 64.18 526.29 64.18 533.22 57.25 531.97 57.25 525.05 64.18"></polygon>
  <polygon class="cls-2" points="540.9 49.57 544.84 45.63 544.84 44.38 540.9 48.32 540.9 49.57"></polygon>
  <polygon class="cls-2" points="556.64 33.83 555.39 33.83 549.09 40.13 549.51 40.95 556.64 33.83"></polygon>
  <polygon class="cls-2" points="554.67 64.18 566.93 51.91 566.93 50.67 553.42 64.18 554.67 64.18"></polygon>
  <polygon class="cls-2" points="458.94 39.31 464.42 33.83 463.18 33.83 458.94 38.07 458.94 39.31"></polygon>
  <path class="cls-2" d="M477.63,52.48a5.63,5.63,0,0,1-.22,1.47l4.72-4.72,0.79-2Z"></path>
  <polygon class="cls-2" points="497.52 33.83 496.28 33.83 489.7 40.41 490.05 41.3 497.52 33.83"></polygon>
  <polygon class="cls-2" points="487.58 43.53 487.53 43.53 487.37 43.98 487.65 43.71 487.58 43.53"></polygon>
  <path class="cls-2" d="M465.93,64.18h1.24l7.12-7.12a8.14,8.14,0,0,1-1.64.39Z"></path>
  <polygon class="cls-2" points="509.26 52.83 513.39 48.7 513.39 47.45 508.9 51.95 509.26 52.83"></polygon>
  <polygon class="cls-2" points="516.74 44.41 516.69 44.41 516.69 45.4 517.06 45.03 516.74 44.41"></polygon>
  <polygon class="cls-2" points="528.26 33.83 527.02 33.83 518.69 42.16 519.11 42.99 528.26 33.83"></polygon>
  <polygon class="cls-2" points="496.67 64.18 497.92 64.18 506.57 55.52 506.23 54.62 496.67 64.18"></polygon>
  <polygon class="cls-2" points="517.95 64.18 519.2 64.18 526.12 57.25 524.88 57.25 517.95 64.18"></polygon>
  <polygon class="cls-2" points="527.51 55.86 531.33 52.05 531.33 50.8 527.51 54.62 527.51 55.86"></polygon>
  <polygon class="cls-2" points="535.11 47.02 536.36 47.02 540.59 42.79 539.34 42.79 535.11 47.02"></polygon>
  <polygon class="cls-2" points="549.54 33.83 548.3 33.83 541.47 40.66 541.47 41.91 549.54 33.83"></polygon>
  <polygon class="cls-2" points="554.27 33.83 553.03 33.83 546.78 40.08 548.02 40.08 554.27 33.83"></polygon>
  <polygon class="cls-2" points="537.13 49.73 534.77 52.09 534.77 53.33 538.38 49.73 537.13 49.73"></polygon>
  <polygon class="cls-2" points="522.68 64.18 523.93 64.18 531.33 56.77 531.33 55.53 522.68 64.18"></polygon>
  <polygon class="cls-2" points="540.9 47.02 540.9 47.2 544.84 43.27 544.84 42.02 539.84 47.02 540.9 47.02"></polygon>
  <polygon class="cls-2" points="564.13 64.18 566.93 61.37 566.93 60.13 562.88 64.18 564.13 64.18"></polygon>
  <path class="cls-2" d="M481,33.83h-1.25l-6,6c0.38,0,.77,0,1.14.11Z"></path>
  <path class="cls-2" d="M470.14,44.67l2.13-2.13A2.24,2.24,0,0,0,470.14,44.67Z"></path>
  <path class="cls-2" d="M458.94,54.62v1.25l8.29-8.29a4,4,0,0,1-.41-0.83Z"></path>
  <polygon class="cls-2" points="544.82 33.83 543.57 33.83 537.32 40.08 538.56 40.08 544.82 33.83"></polygon>
  <polygon class="cls-2" points="513.22 64.18 514.47 64.18 522.66 55.99 522.24 55.16 513.22 64.18"></polygon>
  <polygon class="cls-2" points="534.77 42.79 534.77 43.87 535.86 42.79 534.77 42.79"></polygon>
  <polygon class="cls-2" points="527.51 51.13 531.33 47.32 531.33 46.07 527.51 49.89 527.51 51.13"></polygon>
  <polygon class="cls-2" points="554.3 50.35 555.66 48.99 555.66 47.75 553.88 49.53 554.3 50.35"></polygon>
  <polygon class="cls-2" points="539.23 64.18 540.48 64.18 547.4 57.25 546.16 57.25 539.23 64.18"></polygon>
  <polygon class="cls-2" points="566.93 37.73 566.93 36.48 558.96 44.45 558.96 45.7 566.93 37.73"></polygon>
  <polygon class="cls-2" points="548.13 55.28 548.13 56.52 552.27 52.39 551.84 51.57 548.13 55.28"></polygon>
  <polygon class="cls-2" points="493.39 49.79 498.24 44.94 498.24 43.7 493.04 48.9 493.39 49.79"></polygon>
  <path class="cls-2" d="M503.09,40.09l6.25-6.25H508.1l-6.25,6.25h1.24Z"></path>
  <polygon class="cls-2" points="477.76 64.18 479 64.18 489.86 53.32 488.62 53.32 477.76 64.18"></polygon>
  <polygon class="cls-2" points="492.3 56.72 484.85 64.18 486.09 64.18 493.02 57.25 492.5 57.25 492.3 56.72"></polygon>
  <path class="cls-2" d="M516.44,33.83h-1.25l-7.11,7.11a3.83,3.83,0,0,1,.73.52Z"></path>
  <polygon class="cls-2" points="495.39 54.88 498.24 52.03 498.24 50.79 495.04 53.99 495.39 54.88"></polygon>
  <path class="cls-2" d="M505.67,43.36l-4,4v0.07h1.18L506.23,44A1.71,1.71,0,0,0,505.67,43.36Z"></path>
  <polygon class="cls-2" points="458.94 48.77 473.88 33.83 472.63 33.83 458.94 47.52 458.94 48.77"></polygon>
  <polygon class="cls-2" points="498.24 40.21 498.24 40.08 498.37 40.08 504.62 33.83 503.37 33.83 491.7 45.5 492.05 46.4 498.24 40.21"></polygon>
  <polygon class="cls-2" points="473.02 64.18 474.27 64.18 481.2 57.25 479.95 57.25 473.02 64.18"></polygon>
  <polygon class="cls-2" points="489.17 48.04 486.59 50.61 487.84 50.61 489.49 48.96 489.17 48.04"></polygon>
  <polygon class="cls-2" points="484.06 53.32 483.41 55.04 485.13 53.32 484.06 53.32"></polygon>
  <polygon class="cls-2" points="553.51 48.79 555.66 46.63 555.66 45.38 553.09 47.96 553.51 48.79"></polygon>
  <polygon class="cls-2" points="551.04 50 548.13 52.91 548.13 54.16 551.47 50.83 551.04 50"></polygon>
  <polygon class="cls-2" points="544.84 56.21 536.87 64.18 538.12 64.18 545.04 57.25 544.84 57.25 544.84 56.21"></polygon>
  <polygon class="cls-2" points="566.93 35.36 566.93 34.12 558.96 42.09 558.96 43.33 566.93 35.36"></polygon>
  <polygon class="cls-2" points="531.33 40.22 531.33 40.08 531.47 40.08 537.72 33.83 536.48 33.83 527.51 42.79 527.51 44.04 531.33 40.22"></polygon>
  <polygon class="cls-2" points="522.3 49.25 524.22 47.33 524.22 46.09 521.88 48.43 522.3 49.25"></polygon>
  <polygon class="cls-2" points="519.84 50.47 516.69 53.62 516.69 54.86 520.26 51.29 519.84 50.47"></polygon>
  <polygon class="cls-2" points="513.39 56.91 506.13 64.18 507.38 64.18 514.3 57.25 513.39 57.25 513.39 56.91"></polygon>
  <polygon class="cls-2" points="566.49 64.18 566.93 63.74 566.93 62.49 565.24 64.18 566.49 64.18"></polygon>
  <polygon class="cls-2" points="494.72 53.19 498.24 49.67 498.24 48.42 494.37 52.29 494.72 53.19"></polygon>
  <path class="cls-2" d="M514.08,33.83h-1.25l-6.5,6.5a7.24,7.24,0,0,1,1,.26Z"></path>
  <path class="cls-2" d="M503.83,42.83L501.68,45v1.25L504.9,43A5.37,5.37,0,0,0,503.83,42.83Z"></path>
  <polygon class="cls-2" points="482.48 64.18 483.73 64.18 492 55.91 491.66 55 482.48 64.18"></polygon>
  <path class="cls-2" d="M466.56,44.63l-7.62,7.62V53.5l7.65-7.65a5.41,5.41,0,0,1-.07-0.82C466.52,44.88,466.55,44.77,466.56,44.63Z"></path>
  <path class="cls-2" d="M472.64,39.8l6-6h-1.25l-6,6a9.14,9.14,0,0,1,1.2-.08h0.12Z"></path>
  <polygon class="cls-2" points="516.69 55.98 516.69 57.23 521.06 52.86 520.64 52.03 516.69 55.98"></polygon>
  <polygon class="cls-2" points="527.51 46.4 531.33 42.59 531.33 41.34 527.51 45.16 527.51 46.4"></polygon>
  <polygon class="cls-2" points="508.49 64.18 509.74 64.18 516.66 57.25 515.42 57.25 508.49 64.18"></polygon>
  <polygon class="cls-2" points="540.09 33.83 538.84 33.83 532.59 40.08 533.83 40.08 540.09 33.83"></polygon>
  <polygon class="cls-2" points="523.1 50.82 524.22 49.7 524.22 48.45 522.68 49.99 523.1 50.82"></polygon>
  <polygon class="cls-2" points="489.78 49.79 488.96 50.61 490.07 50.61 489.78 49.79"></polygon>
  <polygon class="cls-2" points="482.72 56.85 482.56 57.25 482.31 57.25 475.39 64.18 476.64 64.18 487.5 53.32 486.25 53.32 482.72 56.85"></polygon>
  <polygon class="cls-2" points="492.72 48.09 498.24 42.58 498.24 41.33 492.37 47.2 492.72 48.09"></polygon>
  <polygon class="cls-2" points="506.98 33.83 505.74 33.83 499.49 40.08 500.73 40.08 506.98 33.83"></polygon>
  <polygon class="cls-2" points="557.98 57.25 551.06 64.18 552.3 64.18 566.93 49.55 566.93 48.3 558.96 56.27 558.96 57.25 557.98 57.25"></polygon>
  <path class="cls-2" d="M506.45,45s0-.05,0-0.08l-2.4,2.4C505.33,47.18,506.45,46.66,506.45,45Z"></path>
  <polygon class="cls-2" points="487.21 64.18 488.46 64.18 495.38 57.25 494.14 57.25 487.21 64.18"></polygon>
  <polygon class="cls-2" points="501.68 50.12 501.68 50.95 502.52 50.12 501.68 50.12"></polygon>
  <path class="cls-2" d="M518.81,33.83h-1.25l-8.22,8.22a3.67,3.67,0,0,1,.41.83Z"></path>
  <polygon class="cls-2" points="495.7 55.69 496.05 56.58 498.24 54.4 498.24 53.15 495.7 55.69"></polygon>
  <polygon class="cls-2" points="552.71 47.22 555.66 44.26 555.66 43.02 552.29 46.4 552.71 47.22"></polygon>
  <polygon class="cls-2" points="558.96 40.97 566.1 33.83 564.85 33.83 558.6 40.08 558.96 40.08 558.96 40.97"></polygon>
  <polygon class="cls-2" points="550.24 48.44 548.13 50.55 548.13 51.79 550.66 49.26 550.24 48.44"></polygon>
  <polygon class="cls-2" points="541.52 57.17 541.52 57.25 541.43 57.25 534.5 64.18 535.75 64.18 544.84 55.09 544.84 53.84 541.52 57.17"></polygon>
  <polygon class="cls-2" points="542.45 33.83 541.2 33.83 534.95 40.08 536.2 40.08 542.45 33.83"></polygon>
  <polygon class="cls-2" points="527.51 48.77 531.33 44.95 531.33 43.7 527.51 47.52 527.51 48.77"></polygon>
  <polygon class="cls-2" points="510.86 64.18 512.11 64.18 521.86 54.42 521.44 53.6 510.86 64.18"></polygon>
  <polygon class="cls-2" points="523.9 52.39 524.22 52.06 524.22 50.82 523.48 51.56 523.9 52.39"></polygon>
  <polygon class="cls-2" points="490.98 53.32 480.12 64.18 481.37 64.18 491.35 54.19 491.03 53.32 490.98 53.32"></polygon>
  <path class="cls-2" d="M511.71,33.83h-1.25l-6.28,6.28c0.39,0,.78,0,1.17.08Z"></path>
  <polygon class="cls-2" points="494.05 51.49 498.24 47.3 498.24 46.06 493.7 50.59 494.05 51.49"></polygon>
  <polygon class="cls-2" points="501.68 42.79 501.68 43.86 502.75 42.79 501.68 42.79"></polygon>
  <path class="cls-2" d="M467.79,54.11l3.84-3.84-0.89-.36-11.8,11.8V63L467,54.9l0.12-1.11C467.33,53.9,467.56,54,467.79,54.11Z"></path>
  <path class="cls-2" d="M488.07,33.83h-1.25L473.3,47.35l0.88,0.36Z"></path>
  <polygon class="cls-2" points="555.1 51.92 555.66 51.36 555.66 50.11 554.68 51.09 555.1 51.92"></polygon>
  <polygon class="cls-2" points="541.6 64.18 542.84 64.18 553.07 53.96 552.64 53.13 541.6 64.18"></polygon>
  <polygon class="cls-2" points="566.93 40.09 566.93 38.85 558.96 46.81 558.96 48.06 566.93 40.09"></polygon>
  <polygon class="cls-2" points="559.4 64.18 566.93 56.64 566.93 55.4 558.15 64.18 559.4 64.18"></polygon>
  <polygon class="cls-2" points="566.93 42.46 566.93 41.21 558.96 49.18 558.96 50.43 566.93 42.46"></polygon>
  <polygon class="cls-2" points="543.96 64.18 545.21 64.18 553.87 55.52 553.45 54.7 543.96 64.18"></polygon>
  <polygon class="cls-2" points="555.61 52.92 555.66 52.92 555.66 52.48 555.48 52.66 555.61 52.92"></polygon>
  <path class="cls-2" d="M458.94,59.35v1.25l11-11c-0.29-.12-0.56-0.26-0.84-0.41Z"></path>
  <path class="cls-2" d="M471.63,46.66c0.27,0.13.56,0.25,0.87,0.38l3.81-3.81a9,9,0,0,0-.91-0.33Z"></path>
  <polygon class="cls-2" points="485.7 33.83 484.45 33.83 476.47 41.81 476.31 43.22 485.7 33.83"></polygon>
  <path class="cls-2" d="M473.4,42.53l-3.08,3.08a2,2,0,0,0,.6.65l3.58-3.58A8.63,8.63,0,0,0,473.4,42.53Z"></path>
  <path class="cls-2" d="M458.94,57v1.25l9.48-9.48a5.07,5.07,0,0,1-.68-0.56Z"></path>
  <path class="cls-2" d="M476.62,40.55l6.72-6.72h-1.25l-6.36,6.36c0.3,0.07.61,0.12,0.9,0.21Z"></path>
  <path class="cls-2" d="M469.84,40.24l6.41-6.41H475L458.94,49.89v1.25l7.86-7.86A4.63,4.63,0,0,1,469.84,40.24Z"></path>
  <polygon class="cls-2" points="546.33 64.18 547.57 64.18 554.67 57.08 554.24 56.26 546.33 64.18"></polygon>
  <polygon class="cls-2" points="566.93 44.82 566.93 43.58 558.96 51.55 558.96 52.79 566.93 44.82"></polygon>
  <polygon class="cls-2" points="458.94 46.41 471.51 33.83 470.27 33.83 458.94 45.16 458.94 46.41"></polygon>
</svg>
